<svg id="Calque_1" data-name="Calque 1" xmlns="http://www.w3.org/2000/svg" viewBox="0 0 500 500"><defs><style>.cls-1,.cls-6{fill:#3c6fb6;}.cls-1{stroke:#1d1d1b;stroke-miterlimit:10;}.cls-2{fill:#2dabe2;}.cls-3{fill:#4caf4c;}.cls-4{fill:#1d1d1b;}.cls-5{fill:none;}</style></defs><path class="cls-1" d="M151.15,354.5h0"/><path class="cls-1" d="M348.85,354.5h0"/><path class="cls-2" d="M319.88,73.58a6.92,6.92,0,0,0-.69-.52,30.82,30.82,0,0,0-14.67-5.82,420.11,420.11,0,0,0-54-3.34h0a420.11,420.11,0,0,0-54,3.34c-15.82,2-26.3,14.76-26.3,28.42,0,4.78,4.07,14.23,4.07,14.23a471.63,471.63,0,0,0,58.9,99.72,113.2,113.2,0,0,0,8.38,9.85,10.87,10.87,0,0,0,1.59,1.36c.14.11.28.22.43.32a12.4,12.4,0,0,0,6.9,2h0a12.17,12.17,0,0,0,8.91-3.7,112.26,112.26,0,0,0,8.39-9.85,472.05,472.05,0,0,0,58.9-99.72,80.36,80.36,0,0,0,2.91-8,24.4,24.4,0,0,0,1.16-6.18A28.28,28.28,0,0,0,319.88,73.58ZM242.8,145.82c-.36.59-19.38-8.12-36.73-17.9a116,116,0,0,1-11.71-7.16,5,5,0,0,1-.46-.34c-5.21-3.9-9.45-8.76-10.9-15.79-1.51-7.38,2.75-15.36,7.83-19.24s12.59-5.2,19.9-2.36a25.11,25.11,0,0,1,6.09,3.4c7.36,5.58,10.38,14.45,13.43,22.67C236.94,127.2,243.47,145.62,242.8,145.82Zm75.28-41.19c-2.5,12.12-13.29,17.78-23.07,23.29-15.95,9-33.32,17.08-36.29,17.87-.26.06-.41.08-.44,0-.67-.2,5.86-18.62,12.55-36.72,3.78-10.19,7.51-21.37,19.52-26.07,7.22-2.81,14.74-1.64,19.72,2.22a1.1,1.1,0,0,1,.18.14C315.33,89.27,319.59,97.25,318.08,104.63Z"/><path class="cls-3" d="M242.8,145.82c-.36.59-19.38-8.12-36.73-17.9a116,116,0,0,1-11.71-7.16,5,5,0,0,1-.46-.34c-5.21-3.9-9.45-8.76-10.9-15.79-1.51-7.38,2.75-15.36,7.83-19.24s12.59-5.2,19.9-2.36a25.11,25.11,0,0,1,6.09,3.4c7.36,5.58,10.38,14.45,13.43,22.67C236.94,127.2,243.47,145.62,242.8,145.82Z"/><path class="cls-4" d="M318.08,104.63c-2.5,12.12-13.29,17.78-23.07,23.29-15.95,9-33.32,17.08-36.29,17.87-.26.06-.41.08-.44,0-.67-.2,5.86-18.62,12.55-36.72,3.78-10.19,7.51-21.37,19.52-26.07,7.22-2.81,14.74-1.64,19.72,2.22a1.1,1.1,0,0,1,.18.14C315.33,89.27,319.59,97.25,318.08,104.63Z"/><path class="cls-5" d="M318.08,104.63c-2.5,12.12-13.29,17.78-23.07,23.29-15.95,9-33.32,17.08-36.29,17.87.37-2.68,6.4-19.65,12.57-36.34,3.78-10.19,7.51-21.38,19.52-26.07,7-2.72,14.29-1.71,19.26,1.87a1.1,1.1,0,0,1,.18.14C315.33,89.27,319.59,97.25,318.08,104.63Z"/><path class="cls-4" d="M242.8,145.82c-.36.59-19.38-8.12-36.73-17.9a116,116,0,0,1-11.71-7.16,5,5,0,0,1-.46-.34c-5-3.85-9-8.62-10.43-15.44-1.52-7.38,2.74-15.37,7.82-19.25s12.59-5.19,19.9-2.35a25.37,25.37,0,0,1,5.63,3.05c7.36,5.58,10.38,14.45,13.43,22.67C236.94,127.2,243.47,145.62,242.8,145.82Z"/><path class="cls-6" d="M263.11,207.49C279.3,192.64,303,154.24,330.37,99.14c-1.06,4.82-3.15,11.1-3.15,11.1A472.05,472.05,0,0,1,268.32,210a112.64,112.64,0,0,1-8.39,9.85,12.18,12.18,0,0,1-8.92,3.7h0a12.2,12.2,0,0,1-8.92-3.7A111.55,111.55,0,0,1,233.7,210a471.31,471.31,0,0,1-59.13-99.53,70.32,70.32,0,0,1-3.77-10.94c31.63,61.27,53.48,95.42,67.8,108.58a15.12,15.12,0,0,0,6.09-6.81,15.6,15.6,0,0,0,1.27-7.45c-.65-10.09-17.93-1.94-7.36-10.09a16.52,16.52,0,0,1,12.51-3.49,16.51,16.51,0,0,1,12.51,3.49c10.57,8.15-6.71,0-7.36,10.09a15.15,15.15,0,0,0,6.67,13.85h0"/><path class="cls-2" d="M193.34,435.74c-115.55-87-139-165.92-143.21-185.65a18.85,18.85,0,0,1,.19-8.55c12-47.54,7.17-142,7.17-142,28.2,14.71,65.43,38.31,104.79,76.2S230,253.06,249.27,284c-38-.5-70.53-9.09-98.14-26.8s-50.33-44.59-68.68-81.68q-4.77-9.65-8.79-19.74S92.6,232.9,119.58,259c31.44,30.39,31.57,94.47,31.57,95.5-.75-1.3-45.86-79.37-28.19-26.26C140.51,380.94,191.75,434.08,193.34,435.74Z"/><path class="cls-6" d="M193.75,436.1c-115.56-87-139-165.92-143.22-185.65a18.85,18.85,0,0,1,.2-8.55c10.46-41.33,8.14-118.16,7.36-137.53,2.32,19.1,10.74,91,13.86,157C75.47,335.67,184,427.35,193.75,436.1Z"/><path class="cls-6" d="M123.37,328.59q1.53,4.62,3.39,9.23c-1.9-4.53-17.67-42.75-6.56-40.95,17,2.77,28.75,51.79,31.05,57.44C147.2,347.35,106.42,277.67,123.37,328.59Z"/><path class="cls-6" d="M246.35,284.29c-36.57-.94-68-9.53-94.82-26.73-27.62-17.73-50.32-44.59-68.68-81.68q-4.77-9.65-8.78-19.74C151.77,253.66,228.56,279.41,246.35,284.29Z"/><path class="cls-2" d="M306.66,435.74c115.55-87,139-165.92,143.21-185.65a18.85,18.85,0,0,0-.19-8.55c-12-47.54-7.17-142-7.17-142-28.2,14.71-65.43,38.31-104.79,76.2S270,253.06,250.73,284c38-.5,70.53-9.09,98.14-26.8s50.33-44.59,68.68-81.68q4.77-9.65,8.79-19.74S407.4,232.9,380.42,259c-31.44,30.39-31.57,94.47-31.57,95.5.75-1.3,45.86-79.37,28.19-26.26C359.49,380.94,308.25,434.08,306.66,435.74Z"/><path class="cls-6" d="M306.25,436.1c115.56-87,139-165.92,143.22-185.65a18.85,18.85,0,0,0-.2-8.55c-10.46-41.33-8.14-118.16-7.36-137.53-2.32,19.1-10.74,91-13.86,157C424.53,335.67,316,427.35,306.25,436.1Z"/><path class="cls-6" d="M376.63,328.59q-1.53,4.62-3.39,9.23c1.9-4.53,17.67-42.75,6.56-40.95-17,2.77-28.75,51.79-31.05,57.44C352.8,347.35,393.58,277.67,376.63,328.59Z"/><path class="cls-6" d="M253.65,284.29c36.57-.94,68-9.53,94.82-26.73,27.62-17.73,50.32-44.59,68.68-81.68q4.77-9.65,8.78-19.74C348.23,253.66,271.44,279.41,253.65,284.29Z"/></svg>